<?xml version="1.0" encoding="utf-8"?>
<!-- Generator: Adobe Illustrator 24.1.1, SVG Export Plug-In . SVG Version: 6.00 Build 0)  -->
<svg version="1.1" xmlns="http://www.w3.org/2000/svg" xmlns:xlink="http://www.w3.org/1999/xlink" x="0px" y="0px"
	 viewBox="0 0 256 256" style="enable-background:new 0 0 256 256;" xml:space="preserve">
<style type="text/css">
	.st0{fill:#FFFFFF;}
</style>
<g id="Border">
	<g>
		<g>
			<g>
				<path class="st0" d="M128,249.11c-53.79,0-97.54-44.08-97.54-98.27c0-29.19,12.66-56.5,34.81-75.24c0-0.06,0-0.12,0-0.17
					c0-34.99,28.47-63.46,63.46-63.46c34.99,0,63.46,28.47,63.46,63.46c0,0.46-0.01,0.94-0.02,1.41
					c21.24,18.7,33.37,45.56,33.37,74.01C225.54,205.03,181.79,249.11,128,249.11z"/>
				<path class="st0" d="M128.73,22.96c28.93,0,52.46,23.53,52.46,52.46c0,0.38,0,0.77-0.01,1.16l-0.12,5.12l3.84,3.38
					c18.84,16.59,29.64,40.55,29.64,65.75c0,48.12-38.82,87.27-86.54,87.27s-86.54-39.15-86.54-87.27
					c0-25.85,11.27-50.22,30.92-66.85l3.93-3.33l-0.04-5.15l0-0.09C76.26,46.5,99.8,22.96,128.73,22.96 M128.73,11.96
					c-34.99,0-63.46,28.47-63.46,63.46c0,0.06,0,0.12,0,0.17c-22.15,18.75-34.81,46.06-34.81,75.24c0,54.19,43.76,98.27,97.54,98.27
					c53.79,0,97.54-44.08,97.54-98.27c0-28.45-12.14-55.31-33.37-74.01c0.01-0.48,0.02-0.95,0.02-1.41
					C192.19,40.43,163.72,11.96,128.73,11.96L128.73,11.96z"/>
			</g>
			<g>
				<path class="st0" d="M157.28,32.97c-0.83,0-1.68-0.26-2.4-0.8c-1.77-1.33-2.13-3.83-0.8-5.6l13.05-17.4
					c0.79-1.05,1.99-1.6,3.2-1.6c0.83,0,1.68,0.26,2.4,0.8c1.77,1.33,2.13,3.83,0.8,5.6l-13.05,17.4
					C159.7,32.42,158.5,32.97,157.28,32.97z"/>
				<g>
					<path class="st0" d="M158.61,28.15c0.92,0.15-1.08,1.02,0.09,0.54c0.51-0.21,1.08-1.45,1.42-1.89c1.4-1.87,2.81-3.75,4.21-5.62
						c1.58-2.1,3.16-4.21,4.74-6.31c0.9-1.2,3.16-3.01,1.25-3.28c-2.57-0.36-5.93,6.3-7.33,8.16c-1.48,1.97-2.96,3.95-4.44,5.92
						c-0.54,0.72-1.05,1.67-1.71,2.29c-1.18,1.09,0,0.06-0.88,0.19c-6.34,0.96-3.65,10.6,2.66,9.64c6.6-1,11.69-11.23,15.32-16.07
						c1.63-2.17,3.78-4.39,4.77-6.96c2.2-5.74-2.17-12.19-8.36-12.19c-7.12-0.01-12.4,10.58-16.09,15.51
						c-1.46,1.95-3.22,3.88-4.48,5.97c-3.33,5.52-0.3,12.71,6.19,13.74C162.25,38.79,164.96,29.16,158.61,28.15z"/>
				</g>
			</g>
			<g>
				<path class="st0" d="M99,32.29c-1.22,0-2.42-0.55-3.2-1.6l-13.05-17.4c-1.33-1.77-0.97-4.27,0.8-5.6
					c1.77-1.33,4.27-0.97,5.6,0.8l13.05,17.4c1.33,1.77,0.97,4.27-0.8,5.6C100.67,32.03,99.83,32.29,99,32.29z"/>
				<g>
					<path class="st0" d="M100.33,27.47c-0.92-0.14,0.52,0.87-0.85-0.14c-0.55-0.41-1-1.34-1.41-1.88
						c-1.49-1.99-2.99-3.98-4.48-5.98c-1.46-1.95-5.03-8.91-7.63-8.56c-1.96,0.27,0.22,1.91,1.13,3.11
						c1.52,2.02,3.04,4.05,4.55,6.07c1.47,1.96,2.94,3.92,4.41,5.88c0.42,0.55,1.02,1.15,1.33,1.77c0.71,1.45,0.35-0.29,0.29-0.28
						c-6.34,1.01-3.65,10.65,2.66,9.64c6.47-1.03,9.53-8.23,6.19-13.74c-1.36-2.25-3.24-4.32-4.82-6.42
						c-3.66-4.87-8.75-15.1-15.8-15.06c-6.19,0.03-10.48,6.47-8.32,12.19c0.94,2.49,3.01,4.61,4.58,6.7
						c3.64,4.86,8.91,15.32,15.51,16.33C103.96,38.07,106.68,28.44,100.33,27.47z"/>
				</g>
			</g>
		</g>
	</g>
</g>
<g id="Front">
	<g id="Bug">
		<g>
			<path class="st0" d="M188.1,78.61c0.06-1.05,0.09-2.11,0.09-3.18c0-32.84-26.62-59.46-59.46-59.46S69.26,42.59,69.26,75.43
				c0,0.67,0.03,1.34,0.05,2.01c-21.26,17.28-34.86,43.74-34.86,73.41c0,52.06,41.88,94.27,93.54,94.27s93.54-42.21,93.54-94.27
				C221.54,121.84,208.54,95.9,188.1,78.61z"/>
			<path d="M128.73,26.96c26.72,0,48.46,21.74,48.46,48.46c0,0.83-0.02,1.7-0.07,2.6l-0.29,5.45l4.17,3.53
				c18.78,15.88,29.55,39.15,29.55,63.84c0,45.92-37.03,83.27-82.54,83.27s-82.54-37.35-82.54-83.27c0-25.32,11.23-48.96,30.8-64.87
				l4.24-3.44l-0.18-5.46l-0.01-0.38c-0.01-0.42-0.03-0.84-0.03-1.26C80.26,48.7,102,26.96,128.73,26.96 M128.73,15.96
				c-32.84,0-59.46,26.62-59.46,59.46c0,0.67,0.03,1.34,0.05,2.01c-21.26,17.28-34.86,43.74-34.86,73.41
				c0,52.06,41.88,94.27,93.54,94.27s93.54-42.21,93.54-94.27c0-29-13-54.94-33.44-72.23c0.06-1.05,0.09-2.11,0.09-3.18
				C188.19,42.59,161.57,15.96,128.73,15.96L128.73,15.96z"/>
		</g>
		<g>
			<g>
				<path d="M161.6,31.49c4.35-5.8,8.7-11.6,13.05-17.4c1.63-2.18,0.33-5.57-1.79-6.84c-2.54-1.52-5.23-0.36-6.84,1.79
					c-4.35,5.8-8.7,11.6-13.05,17.4c-1.63,2.18-0.33,5.57,1.79,6.84C157.3,34.81,159.99,33.64,161.6,31.49
					c4.35-5.8,8.7-11.6,13.05-17.4c1.63-2.18,0.33-5.57-1.79-6.84c-2.54-1.52-5.23-0.36-6.84,1.79c-4.35,5.8-8.7,11.6-13.05,17.4
					c-1.63,2.18-0.33,5.57,1.79,6.84C157.3,34.81,159.99,33.64,161.6,31.49z"/>
			</g>
		</g>
		<g>
			<g>
				<path d="M81.62,13.41c4.35,5.8,8.7,11.6,13.05,17.4c1.63,2.18,4.3,3.24,6.84,1.79c2.14-1.22,3.41-4.69,1.79-6.84
					c-4.35-5.8-8.7-11.6-13.05-17.4c-1.63-2.18-4.3-3.24-6.84-1.79C81.28,7.79,80.01,11.26,81.62,13.41L81.62,13.41z"/>
			</g>
		</g>
	</g>
	<g id="Title">
		<path d="M70.32,121.45h17.06c1.87,0,3.61,0.29,5.24,0.88c1.62,0.59,3.04,1.4,4.23,2.44c1.2,1.04,2.14,2.24,2.83,3.62
			c0.69,1.38,1.04,2.86,1.04,4.45c0,2.31-0.56,4.25-1.67,5.82c-1.12,1.56-2.51,2.75-4.17,3.56v0.49c2.23,0.81,4.03,2.08,5.39,3.81
			c1.36,1.73,2.04,3.87,2.04,6.43c0,1.87-0.38,3.54-1.13,5.03c-0.75,1.48-1.78,2.75-3.08,3.81c-1.3,1.06-2.81,1.87-4.54,2.44
			c-1.73,0.57-3.58,0.85-5.57,0.85H70.32V121.45z M86.76,139.24c1.91,0,3.38-0.52,4.42-1.55c1.04-1.04,1.55-2.26,1.55-3.68
			c0-1.42-0.51-2.64-1.52-3.66c-1.02-1.01-2.42-1.52-4.2-1.52h-8.47v10.42H86.76z M87.68,157.51c2.07,0,3.65-0.52,4.75-1.55
			c1.1-1.04,1.64-2.37,1.64-3.99c0-1.62-0.56-2.97-1.67-4.05c-1.12-1.08-2.77-1.61-4.96-1.61h-8.89v11.21H87.68z"/>
		<path d="M107.66,165.07v-43.61h7.98v43.61H107.66z"/>
		<path d="M143.11,161.17h-0.49c-0.93,1.5-2.19,2.69-3.78,3.56s-3.39,1.31-5.42,1.31c-3.78,0-6.59-1.16-8.44-3.47
			c-1.85-2.32-2.77-5.4-2.77-9.26v-18.09h7.98v17.12c0,2.15,0.48,3.75,1.43,4.78s2.35,1.55,4.17,1.55c1.1,0,2.06-0.23,2.89-0.7
			c0.83-0.47,1.54-1.1,2.13-1.89c0.59-0.79,1.04-1.73,1.34-2.8c0.3-1.08,0.46-2.22,0.46-3.44v-14.62h7.98v29.85h-7.49V161.17z"/>
		<path d="M170.88,179.2c-2.11,0-3.99-0.27-5.63-0.82s-3.08-1.26-4.29-2.13c-1.22-0.87-2.23-1.84-3.05-2.89
			c-0.81-1.06-1.4-2.11-1.77-3.17l7.61-3.04c0.57,1.58,1.5,2.81,2.8,3.68c1.3,0.87,2.74,1.31,4.33,1.31c2.52,0,4.51-0.82,5.97-2.45
			c1.46-1.63,2.19-3.88,2.19-6.75v-2.07h-0.49c-0.93,1.3-2.16,2.33-3.69,3.08c-1.52,0.75-3.32,1.13-5.39,1.13
			c-1.79,0-3.52-0.36-5.21-1.08c-1.69-0.72-3.18-1.76-4.48-3.11c-1.3-1.35-2.36-2.97-3.17-4.86c-0.81-1.89-1.22-4-1.22-6.33
			c0-2.33,0.41-4.45,1.22-6.36c0.81-1.91,1.87-3.54,3.17-4.89c1.3-1.35,2.79-2.38,4.48-3.11c1.68-0.72,3.42-1.09,5.21-1.09
			c2.07,0,3.87,0.38,5.39,1.13c1.52,0.75,2.75,1.78,3.69,3.08h0.49v-3.23h7.61v27.72c0,2.52-0.39,4.78-1.16,6.79
			c-0.77,2.01-1.85,3.72-3.23,5.12c-1.38,1.4-3.04,2.48-4.96,3.23C175.38,178.82,173.24,179.2,170.88,179.2z M171.19,157.88
			c0.97,0,1.94-0.18,2.89-0.54c0.95-0.36,1.8-0.89,2.53-1.58c0.73-0.7,1.32-1.55,1.77-2.57c0.45-1.02,0.67-2.18,0.67-3.5
			c0-1.32-0.22-2.49-0.67-3.53c-0.45-1.04-1.04-1.9-1.77-2.6c-0.73-0.7-1.57-1.23-2.53-1.58c-0.95-0.36-1.92-0.54-2.89-0.54
			s-1.93,0.18-2.86,0.54c-0.93,0.36-1.77,0.9-2.5,1.61c-0.73,0.72-1.32,1.59-1.77,2.6c-0.45,1.02-0.67,2.18-0.67,3.5
			c0,1.32,0.22,2.48,0.67,3.5c0.45,1.02,1.04,1.87,1.77,2.57c0.73,0.7,1.56,1.23,2.5,1.58C169.26,157.7,170.21,157.88,171.19,157.88
			z"/>
	</g>
	<g>
	</g>
	<g>
	</g>
	<g>
	</g>
	<g>
	</g>
	<g>
	</g>
	<g>
	</g>
	<g>
	</g>
	<g>
	</g>
	<g>
	</g>
	<g>
	</g>
	<g>
	</g>
	<g>
	</g>
	<g>
	</g>
	<g>
	</g>
	<g>
	</g>
</g>
</svg>
