<svg id="Layer_1" data-name="Layer 1" xmlns="http://www.w3.org/2000/svg" viewBox="0 0 187.09 239.21"><defs><style>.cls-1{fill:#fff;}</style></defs><circle class="cls-1" cx="128.72" cy="75.43" r="53.96" transform="translate(-50.09 107.21) rotate(-45)"/><path d="M128.73,27A48.47,48.47,0,1,1,80.26,75.43,48.52,48.52,0,0,1,128.73,27m0-11a59.47,59.47,0,1,0,59.46,59.47A59.47,59.47,0,0,0,128.73,16Z" transform="translate(-34.46 -5.91)"/><ellipse class="cls-1" cx="93.54" cy="144.94" rx="88.04" ry="88.77"/><path d="M128,67.57c45.52,0,82.54,37.36,82.54,83.27s-37,83.27-82.54,83.27-82.54-37.35-82.54-83.27,37-83.27,82.54-83.27m0-11c-51.66,0-93.54,42.21-93.54,94.27S76.34,245.11,128,245.11s93.54-42.2,93.54-94.27S179.66,56.57,128,56.57Z" transform="translate(-34.46 -5.91)"/><path d="M81.62,13.41l13.06,17.4c1.63,2.18,4.3,3.24,6.84,1.8,2.14-1.22,3.41-4.69,1.79-6.84l-13-17.41C88.63,6.19,86,5.13,83.42,6.57c-2.14,1.22-3.41,4.69-1.8,6.84Z" transform="translate(-34.46 -5.91)"/><path d="M161.6,31.49l13.06-17.4c1.63-2.18.33-5.57-1.8-6.84C170.32,5.73,167.63,6.89,166,9L153,26.45c-1.63,2.17-.33,5.56,1.79,6.84,2.54,1.52,5.23.35,6.84-1.8Z" transform="translate(-34.46 -5.91)"/><path d="M70.32,121.45H87.37a15.45,15.45,0,0,1,5.24.88,13.44,13.44,0,0,1,4.23,2.44,11.7,11.7,0,0,1,2.84,3.63A10.58,10.58,0,0,1,99,138.66a11,11,0,0,1-4.18,3.56v.49a11.85,11.85,0,0,1,5.4,3.81,10,10,0,0,1,2,6.42,11,11,0,0,1-1.13,5,11.7,11.7,0,0,1-3.08,3.81,14.23,14.23,0,0,1-4.54,2.43,17.62,17.62,0,0,1-5.57.86H70.32Zm16.44,17.79a6,6,0,0,0,4.42-1.56,5.15,5.15,0,0,0,0-7.34,5.71,5.71,0,0,0-4.2-1.52H78.54v10.42Zm.92,18.27A6.69,6.69,0,0,0,92.43,156a5.28,5.28,0,0,0,1.64-4,5.42,5.42,0,0,0-1.67-4.05,6.88,6.88,0,0,0-5-1.62H78.54v11.21Z" transform="translate(-34.46 -5.91)"/><path d="M107.66,165.07V121.45h8v43.62Z" transform="translate(-34.46 -5.91)"/><path d="M143.11,161.17h-.49a10.11,10.11,0,0,1-3.78,3.56,11.06,11.06,0,0,1-5.42,1.31q-5.67,0-8.44-3.47t-2.77-9.26V135.22h8v17.11a6.91,6.91,0,0,0,1.43,4.79,5.43,5.43,0,0,0,4.18,1.55,5.78,5.78,0,0,0,2.89-.7,6.85,6.85,0,0,0,2.13-1.89,8.37,8.37,0,0,0,1.34-2.8,12.38,12.38,0,0,0,.46-3.44V135.22h8v29.85h-7.49Z" transform="translate(-34.46 -5.91)"/><path d="M170.88,179.2a18,18,0,0,1-5.63-.82,15.86,15.86,0,0,1-4.3-2.14,14.26,14.26,0,0,1-3-2.89,11.49,11.49,0,0,1-1.77-3.17l7.62-3a7.18,7.18,0,0,0,2.8,3.68,8.19,8.19,0,0,0,10.29-1.14,9.76,9.76,0,0,0,2.19-6.75v-2.07h-.48a9.77,9.77,0,0,1-3.69,3.08,12.06,12.06,0,0,1-5.39,1.13,13.16,13.16,0,0,1-5.21-1.09,13.6,13.6,0,0,1-4.47-3.11,15.85,15.85,0,0,1-4.39-11.19,16.13,16.13,0,0,1,1.22-6.36,15.94,15.94,0,0,1,3.17-4.89,13.72,13.72,0,0,1,4.47-3.1,13.16,13.16,0,0,1,5.21-1.09,12.06,12.06,0,0,1,5.39,1.13,9.77,9.77,0,0,1,3.69,3.08H179v-3.23h7.62v27.71a18.94,18.94,0,0,1-1.16,6.8,14.63,14.63,0,0,1-3.23,5.11,14,14,0,0,1-5,3.23A17.61,17.61,0,0,1,170.88,179.2Zm.31-21.32a8.12,8.12,0,0,0,2.89-.54,7.43,7.43,0,0,0,2.53-1.59,7.84,7.84,0,0,0,1.77-2.57,8.71,8.71,0,0,0,.66-3.5,8.91,8.91,0,0,0-.66-3.52,7.92,7.92,0,0,0-1.77-2.61,7.56,7.56,0,0,0-2.53-1.58,8.12,8.12,0,0,0-2.89-.54,7.94,7.94,0,0,0-2.87.54,7.36,7.36,0,0,0-2.49,1.61,8.36,8.36,0,0,0-1.77,2.61,9.45,9.45,0,0,0,0,7,7.84,7.84,0,0,0,1.77,2.57,7.45,7.45,0,0,0,2.49,1.59A7.94,7.94,0,0,0,171.19,157.88Z" transform="translate(-34.46 -5.91)"/></svg>